<svg width="20" height="21" viewBox="0 0 20 21" fill="none" xmlns="http://www.w3.org/2000/svg">
<path opacity="0.4" fill-rule="evenodd" clip-rule="evenodd" d="M14.0137 20H5.6659C2.59954 20 0.24714 18.8925 0.915333 14.4348L1.69336 8.3936C2.10526 6.16934 3.52403 5.31808 4.76888 5.31808H14.9474C16.2105 5.31808 17.5469 6.23342 18.0229 8.3936L18.8009 14.4348C19.3684 18.389 17.0801 20 14.0137 20Z" stroke="#1B1D21" stroke-width="1.5" stroke-linecap="round" stroke-linejoin="round"/>
<path opacity="0.4" d="M14.151 5.0984C14.151 2.71233 12.2167 0.778039 9.83067 0.778039V0.778039C8.68166 0.77317 7.57805 1.2262 6.76386 2.03695C5.94967 2.84771 5.49198 3.94939 5.49199 5.0984H5.49199" stroke="#1B1D21" stroke-width="1.5" stroke-linecap="round" stroke-linejoin="round"/>
<path opacity="0.4" d="M12.7963 9.60183H12.7506" stroke="#1B1D21" stroke-width="1.5" stroke-linecap="round" stroke-linejoin="round"/>
<path opacity="0.4" d="M6.96568 9.60183H6.91991" stroke="#1B1D21" stroke-width="1.5" stroke-linecap="round" stroke-linejoin="round"/>
</svg>
