<svg width="18" height="18" viewBox="0 0 18 18" fill="none" xmlns="http://www.w3.org/2000/svg">
<g clip-path="url(#clip0_2581_18552)">
<path d="M7.44668 7.61991C7.20785 7.63956 6.98515 7.74831 6.82279 7.92457C6.66044 8.10083 6.57031 8.3317 6.57031 8.57134C6.57031 8.81097 6.66044 9.04185 6.82279 9.21811C6.98515 9.39437 7.20785 9.50312 7.44668 9.52277C7.56687 9.51836 7.685 9.4902 7.79424 9.43989C7.90348 9.38959 8.00168 9.31815 8.08317 9.22969C8.16465 9.14123 8.22781 9.03751 8.26899 8.92452C8.31017 8.81152 8.32857 8.69148 8.32311 8.57134C8.329 8.45109 8.31091 8.33087 8.26989 8.21769C8.22887 8.1045 8.16573 8.00061 8.08417 7.91206C8.0026 7.82351 7.90423 7.75208 7.79478 7.70192C7.68534 7.65177 7.56701 7.62389 7.44668 7.61991ZM10.5753 7.61991C10.3838 7.60417 10.192 7.64658 10.025 7.7416C9.85794 7.83662 9.7235 7.97982 9.63919 8.15249C9.55489 8.32515 9.52465 8.51924 9.55243 8.70936C9.58021 8.89949 9.66471 9.07681 9.7949 9.21813C9.92508 9.35946 10.0949 9.45821 10.2821 9.50147C10.4693 9.54474 10.6652 9.5305 10.8442 9.46062C11.0232 9.39075 11.1769 9.26848 11.2853 9.10982C11.3937 8.95116 11.4517 8.76348 11.4517 8.57134C11.4571 8.45137 11.4388 8.3315 11.3978 8.21864C11.3567 8.10578 11.2938 8.00215 11.2125 7.91372C11.1312 7.82529 11.0333 7.75381 10.9243 7.70338C10.8153 7.65296 10.6974 7.62459 10.5774 7.61991H10.5753Z" fill="#22252D"/>
<path d="M14.7429 0.428711H3.25715C3.02566 0.429273 2.79655 0.475461 2.58291 0.564635C2.36928 0.653809 2.17532 0.784219 2.01213 0.948408C1.84894 1.1126 1.71971 1.30734 1.63183 1.52151C1.54396 1.73568 1.49917 1.96507 1.50001 2.19657V13.783C1.49917 14.0145 1.54396 14.2439 1.63183 14.458C1.71971 14.6722 1.84894 14.867 2.01213 15.0312C2.17532 15.1953 2.36928 15.3258 2.58291 15.4149C2.79655 15.5041 3.02566 15.5503 3.25715 15.5509H12.9772L12.5229 13.9651L13.62 14.983L14.6572 15.943L16.5 17.5716V2.19657C16.5009 1.96507 16.4561 1.73568 16.3682 1.52151C16.2803 1.30734 16.1511 1.1126 15.9879 0.948408C15.8247 0.784219 15.6307 0.653809 15.4171 0.564635C15.2035 0.475461 14.9744 0.429273 14.7429 0.428711V0.428711ZM11.4343 11.6251C11.4343 11.6251 11.1257 11.2566 10.8686 10.9287C11.4903 10.7834 12.0407 10.4229 12.4222 9.91085C12.1137 10.1161 11.7831 10.2858 11.4364 10.4166C11.0377 10.5868 10.6207 10.7104 10.1936 10.7851C9.45948 10.9203 8.70662 10.9174 7.97358 10.7766C7.54323 10.6924 7.12147 10.569 6.71358 10.408C6.36915 10.2744 6.04011 10.1042 5.73215 9.90014C6.09896 10.4018 6.62954 10.7596 7.23215 10.9116C6.97501 11.2373 6.65787 11.623 6.65787 11.623C6.1487 11.6367 5.64396 11.5251 5.18808 11.2979C4.73221 11.0707 4.33917 10.7349 4.04358 10.3201C4.07074 8.58263 4.49204 6.87397 5.27573 5.323C5.96662 4.78043 6.80902 4.46593 7.68644 4.423L7.77215 4.52585C6.94736 4.72997 6.17767 5.11335 5.51787 5.64871C5.51787 5.64871 5.70644 5.54585 6.02358 5.40014C6.64038 5.11868 7.29777 4.93643 7.97144 4.86014C8.01942 4.85021 8.06818 4.84447 8.11715 4.843C8.69154 4.76816 9.27283 4.7624 9.84858 4.82585C10.754 4.92927 11.6305 5.2088 12.4286 5.64871C11.8022 5.13886 11.0748 4.76782 10.2943 4.56014L10.4143 4.423C11.2917 4.46593 12.1341 4.78043 12.825 5.323C13.6087 6.87397 14.03 8.58263 14.0572 10.3201C13.7594 10.7349 13.3648 11.0706 12.9076 11.298C12.4505 11.5255 11.9447 11.6378 11.4343 11.6251Z" fill="#22252D"/>
</g>
<defs>
<clipPath id="clip0_2581_18552">
<rect width="17.1429" height="17.1429" fill="white" transform="translate(0.429688 0.428711)"/>
</clipPath>
</defs>
</svg>
