<svg width="18" height="18" viewBox="0 0 18 18" fill="none" xmlns="http://www.w3.org/2000/svg">
<g clip-path="url(#clip0_2581_18565)">
<path d="M9.00335 11.7147C10.5024 11.7147 11.7176 10.4995 11.7176 9.00042C11.7176 7.50136 10.5024 6.28613 9.00335 6.28613C7.50429 6.28613 6.28906 7.50136 6.28906 9.00042C6.28906 10.4995 7.50429 11.7147 9.00335 11.7147Z" fill="#22252D"/>
<path d="M12.3944 0.857422H5.60869C2.99009 0.857422 0.859375 2.98881 0.859375 5.6081V12.3938C0.859375 15.0124 2.99077 17.1431 5.61005 17.1431H12.3958C15.0144 17.1431 17.1451 15.0117 17.1451 12.3925V5.60674C17.1451 2.98814 15.0137 0.857422 12.3944 0.857422ZM9.00223 13.0717C6.75684 13.0717 4.9308 11.2457 4.9308 9.00028C4.9308 6.75488 6.75684 4.92885 9.00223 4.92885C11.2476 4.92885 13.0737 6.75488 13.0737 9.00028C13.0737 11.2457 11.2476 13.0717 9.00223 13.0717ZM13.7522 4.92885C13.3777 4.92885 13.0737 4.62485 13.0737 4.25028C13.0737 3.87571 13.3777 3.57171 13.7522 3.57171C14.1268 3.57171 14.4308 3.87571 14.4308 4.25028C14.4308 4.62485 14.1268 4.92885 13.7522 4.92885Z" fill="#22252D"/>
</g>
<defs>
<clipPath id="clip0_2581_18565">
<rect width="17.1429" height="17.1429" fill="white" transform="translate(0.429688 0.428711)"/>
</clipPath>
</defs>
</svg>
