<svg width="18" height="18" viewBox="0 0 18 18" fill="none" xmlns="http://www.w3.org/2000/svg">
<g clip-path="url(#clip0_2581_18575)">
<path d="M17.5376 2.23341C17.5239 2.17014 17.4935 2.11167 17.4498 2.06395C17.406 2.01623 17.3504 1.98098 17.2885 1.9618C17.0634 1.9174 16.8306 1.93405 16.6141 2.01001C16.6141 2.01001 1.59426 7.40841 0.736579 8.00626C0.551222 8.13483 0.489615 8.2093 0.459079 8.29769C0.310686 8.72305 0.772472 8.91055 0.772472 8.91055L4.64354 10.1722C4.70893 10.1835 4.77605 10.1794 4.83961 10.1604C5.72033 9.6043 13.6998 4.56537 14.161 4.39608C14.2334 4.37412 14.2869 4.39608 14.2751 4.44966C14.0866 5.09573 7.19568 11.2195 7.15765 11.257C7.13916 11.2721 7.12463 11.2916 7.1153 11.3136C7.10597 11.3356 7.10212 11.3596 7.10408 11.3834L6.74408 15.1607C6.74408 15.1607 6.59301 16.3393 7.76943 15.1607C8.60354 14.3255 9.4039 13.6345 9.80515 13.2986C11.1364 14.2173 12.5689 15.2336 13.1866 15.7629C13.2902 15.8635 13.4131 15.9423 13.5478 15.9944C13.6826 16.0465 13.8265 16.0709 13.9709 16.0661C14.5601 16.0436 14.7209 15.3991 14.7209 15.3991C14.7209 15.3991 17.4573 4.38751 17.5494 2.91162C17.558 2.76698 17.5703 2.6743 17.5714 2.57519C17.5763 2.46024 17.5649 2.34518 17.5376 2.23341Z" fill="#22252D"/>
</g>
<defs>
<clipPath id="clip0_2581_18575">
<rect width="17.1429" height="17.1429" fill="white" transform="translate(0.429688 0.428711)"/>
</clipPath>
</defs>
</svg>
