<svg width="18" height="18" viewBox="0 0 18 18" fill="none" xmlns="http://www.w3.org/2000/svg">
<g clip-path="url(#clip0_2581_18561)">
<path d="M17.5714 3.69636C16.9286 3.96422 16.2857 4.1785 15.5357 4.23207C16.2857 3.8035 16.8214 3.10707 17.0893 2.3035C16.3929 2.73207 15.6429 2.99993 14.8393 3.16064C14.1964 2.46422 13.2857 2.03564 12.3214 2.03564C10.3929 2.03564 8.78571 3.58922 8.78571 5.57136C8.78571 5.83922 8.83928 6.10707 8.89286 6.37493C5.94643 6.21422 3.375 4.82136 1.60714 2.6785C1.28571 3.21422 1.125 3.8035 1.125 4.44636C1.125 5.6785 1.76786 6.74993 2.67857 7.39279C2.08929 7.39279 1.55357 7.23207 1.07143 6.96422V7.01779C1.07143 8.73207 2.30357 10.1249 3.91071 10.4464C3.58929 10.4999 3.32143 10.5535 3 10.5535C2.78571 10.5535 2.57143 10.5535 2.35714 10.4999C2.78571 11.8928 4.125 12.9106 5.625 12.9642C4.44643 13.9285 2.89286 14.4642 1.23214 14.4642C0.964286 14.4642 0.642857 14.4642 0.375 14.4106C1.98214 15.3749 3.85714 15.9642 5.83929 15.9642C12.3214 15.9642 15.8571 10.6071 15.8571 5.94636C15.8571 5.78564 15.8571 5.62493 15.8571 5.51779C16.5 4.98207 17.0893 4.39279 17.5714 3.69636Z" fill="#22252D"/>
</g>
<defs>
<clipPath id="clip0_2581_18561">
<rect width="17.1429" height="17.1429" fill="white" transform="translate(0.429688 0.428711)"/>
</clipPath>
</defs>
</svg>
